<?xml version="1.0" encoding="utf-8"?>
<?xml-stylesheet type="text/xsl" href="rss1.xsl"?>
<rss version="2.0" xmlns:atom="http://www.w3.org/2005/Atom" xmlns:content="http://purl.org/rss/1.0/modules/content/" xmlns:dc="http://purl.org/dc/elements/1.1/" xmlns:media="http://search.yahoo.com/mrss/">
<channel>
 <title>Getty</title>
 <link>http://www.gettyimg.com/</link>
 <atom:link href="http://www.gettyimg.com/" rel="self" type="application/rss+xml" />

 
                <item>
                <title><![CDATA[【HD Live Performances】WEB-RiP - Justin.Timberlake.Live.from.New.York.2007.1080p.AMZN.WEB-DL.DDP2.0.H.264-mariellisaa]]></title>
                <link><![CDATA[https://sharemania.us/threads/justin-timberlake-live-from-new-york-2007-1080p-amzn-web-dl-ddp2-0-h-264-mariellisaa.231154/]]></link>
                <description><![CDATA[<article>
<blockquote class="messageText SelectQuoteContainer ugc baseHtml">
<div style="text-align: center"><span style="font-family: 'Times New Roman'"><img src="https://i.imgur.com/ocJJ82S.jpg" class="bbCodeImage LbImage" alt="[​IMG]" data-url="https://i.imgur.com/ocJJ82S.jpg" style=""><span style="font-size: 15px"> <br>
<img src="https://i.imgur.com/4Nl2gjc.jpg" class="bbCodeImage LbImage" alt="[​IMG]" data-url="https://i.imgur.com/4Nl2gjc.jpg" style=""> <br>
</span></span>​</div>
<div class="ToggleTriggerAnchor bbCodeSpoilerContainer">
<button type="button" class="button bbCodeSpoilerButton ToggleTrigger Tooltip JsOnly" data-target="> .SpoilerTarget"><span>Spoiler: <span class="SpoilerTitle">MediaInfo</span></span></button>
<div class="SpoilerTarget bbCodeSpoilerText"><span style="font-family: 'Times New Roman'"><span style="font-size: 15px">General<br>
Complete name : D:\Justin.Timberlake.Live.from.New.York.2007.1080p.AMZN.WEB-DL.DDP2.0.H.264-mariellisaa.mp4<br>
Format : MPEG-4<br>
Format profile : Base Media<br>
Codec ID : isom (isom/dby1/iso2/avc1/mp41)<br>
File size : 10.2 GiB<br>
Duration : 2 h 14 min<br>
Overall bit rate mode : Variable<br>
Overall bit rate : 10.9 Mb/s<br>
Collection : Justin Timberlake - Live from New York<br>
Track name : Justin Timberlake - Live from New York<br>
Genre : Music Videos and Concerts;International<br>
Description : The FutureSex/LoveSounds album, which spawned the tour FutureSex/LoveShow, is one of the most awarded 2007 albums and has sold more than eight million copies worldwide. 'Sexyback', 'What Comes Around ... Goes Around', 'My Love', 'Summer Love' and 'Lovestoned' are some of the highlights and were among the most played of the year around the world.<br>
Recorded date : 2007<br>
Writing application : Lavf60.3.100<br>
Cover : Yes<br>
<br>
Video<br>
ID : 1<br>
Format : AVC<br>
Format/Info : Advanced Video Codec<br>
Format profile : High@L4<br>
Format settings : CABAC / 4 Ref Frames<br>
Format settings, CABAC : Yes<br>
Format settings, Reference frames : 4 frames<br>
Codec ID : avc1<br>
Codec ID/Info : Advanced Video Coding<br>
Duration : 2 h 14 min<br>
Duration_LastFrame : -30 ms<br>
Bit rate : 10.7 Mb/s<br>
Width : 1 920 pixels<br>
Height : 1 080 pixels<br>
Display aspect ratio : 16:9<br>
Frame rate mode : Constant<br>
Frame rate : 25.000 FPS<br>
Color space : YUV<br>
Chroma subsampling : 4:2:0<br>
Bit depth : 8 bits<br>
Scan type : Progressive<br>
Bits/(Pixel*Frame) : 0.206<br>
Stream size : 10.0 GiB (98%)<br>
Color range : Limited<br>
Color primaries : BT.709<br>
Transfer characteristics : BT.709<br>
Matrix coefficients : BT.709<br>
Codec configuration box : avcC<br>
<br>
Audio<br>
ID : 3<br>
Format : E-AC-3<br>
Format/Info : Enhanced AC-3<br>
Commercial name : Dolby Digital Plus<br>
Codec ID : ec-3<br>
Duration : 2 h 14 min<br>
Bit rate mode : Constant<br>
Bit rate : 224 kb/s<br>
Channel(s) : 2 channels<br>
Channel layout : L R<br>
Sampling rate : 48.0 kHz<br>
Frame rate : 31.250 FPS (1536 SPF)<br>
Compression mode : Lossy<br>
Stream size : 215 MiB (2%)<br>
Language : English<br>
Service kind : Complete Main<br>
Default : Yes<br>
Alternate group : 1<br>
<br>
Text<br>
ID : 4<br>
Format : Timed Text<br>
Muxing mode : sbtl<br>
Codec ID : tx3g<br>
Duration : 2 h 14 min<br>
Bit rate mode : Variable<br>
Bit rate : 90 b/s<br>
Frame rate : 0.459 FPS<br>
Stream size : 88.1 KiB (0%)<br>
Title : English [CC]<br>
Language : English<br>
Default : Yes<br>
Forced : No<br>
Alternate group : 3<br>
<br>
<br>
</span></span></div>
</div><br>
<div style="text-align: center"><span style="font-family: 'Times New Roman'"><span style="font-size: 15px"><br>
<div class="bbCodeBlock bbCodeVfcHH HiddenContent">
<div class="attribution type">Hidden Content:</div>
<blockquote>You must either reply or click 'Like' to see the hidden information contained here.</blockquote>
</div></span><br>
<br>
Ripped: by me</span>​</div>
<div class="messageTextEndMarker">&nbsp;</div>
</blockquote>
</article>]]></description>
                <author><![CDATA[mariellisaa]]></author>
                </item>

                
                <item>
                <title><![CDATA[【Albums (lossy)】iTunes Plus - Taylor Swift - 1989 (Taylor's Version) [Deluxe] | Apple Digital Master | AAC-LC | 256kbits/s]]></title>
                <link><![CDATA[https://sharemania.us/threads/taylor-swift-1989-taylors-version-deluxe-apple-digital-master-aac-lc-256kbits-s.231153/]]></link>
                <description><![CDATA[<article>
<blockquote class="messageText SelectQuoteContainer ugc baseHtml">
thanks
<div class="messageTextEndMarker">&nbsp;</div>
</blockquote>
</article>]]></description>
                <author><![CDATA[Yennefer]]></author>
                </item>

                </channel></rss>